<svg xmlns="http://www.w3.org/2000/svg" xmlns:xlink="http://www.w3.org/1999/xlink" width="500" zoomAndPan="magnify" viewBox="0 0 375 374.999991" height="500" preserveAspectRatio="xMidYMid meet" version="1.0"><path fill="#54afe6" d="M 196.996094 374.886719 C 195.53125 374.886719 194.308594 373.742188 194.230469 372.261719 C 194.15625 370.730469 195.332031 369.433594 196.859375 369.351562 C 293.664062 364.4375 369.492188 284.609375 369.492188 187.621094 C 369.492188 162.140625 364.304688 137.480469 354.074219 114.324219 C 353.453125 112.925781 354.089844 111.289062 355.488281 110.671875 C 356.886719 110.054688 358.523438 110.6875 359.144531 112.085938 C 369.683594 135.953125 375.03125 161.367188 375.03125 187.621094 C 375.03125 235.953125 356.621094 281.875 323.191406 316.933594 C 289.878906 351.867188 245.113281 372.453125 197.140625 374.886719 C 197.089844 374.886719 197.046875 374.886719 196.996094 374.886719 " fill-opacity="1" fill-rule="nonzero"/><path fill="#2c3587" d="M 78.917969 339.753906 C 78.351562 339.753906 77.78125 339.582031 77.285156 339.226562 C 53.878906 322.152344 34.449219 299.589844 21.101562 273.964844 C 7.304688 247.476562 0.0117188 217.621094 0.0117188 187.621094 C 0.0117188 138.15625 19.171875 91.457031 53.96875 56.121094 C 55.042969 55.035156 56.796875 55.019531 57.886719 56.089844 C 58.976562 57.167969 58.988281 58.921875 57.917969 60.011719 C 24.148438 94.304688 5.550781 139.621094 5.550781 187.621094 C 5.550781 245.503906 33.589844 300.507812 80.550781 334.746094 C 81.785156 335.648438 82.058594 337.378906 81.160156 338.617188 C 80.617188 339.363281 79.773438 339.753906 78.917969 339.753906 " fill-opacity="1" fill-rule="nonzero"/><path fill="#2c3587" d="M 291.234375 37.585938 C 290.703125 37.585938 290.160156 37.429688 289.679688 37.101562 C 259.464844 16.523438 224.136719 5.652344 187.523438 5.652344 C 159.929688 5.652344 133.410156 11.695312 108.703125 23.621094 C 107.324219 24.285156 105.667969 23.707031 105.003906 22.332031 C 104.339844 20.953125 104.917969 19.292969 106.292969 18.632812 C 131.761719 6.339844 159.089844 0.113281 187.523438 0.113281 C 225.253906 0.113281 261.65625 11.316406 292.800781 32.523438 C 294.0625 33.382812 294.390625 35.109375 293.53125 36.371094 C 292.992188 37.15625 292.125 37.585938 291.234375 37.585938 " fill-opacity="1" fill-rule="nonzero"/><path fill="#286291" d="M 288.125 329.140625 C 287.269531 329.140625 286.425781 328.742188 285.882812 327.996094 C 284.984375 326.761719 285.257812 325.027344 286.496094 324.128906 C 309.566406 307.355469 328.15625 284.894531 340.253906 259.179688 C 340.90625 257.792969 342.554688 257.199219 343.9375 257.847656 C 345.320312 258.503906 345.917969 260.152344 345.269531 261.535156 C 332.773438 288.09375 313.574219 311.285156 289.75 328.609375 C 289.261719 328.964844 288.691406 329.140625 288.125 329.140625 " fill-opacity="1" fill-rule="nonzero"/><path fill="#f1ad53" d="M 187.523438 361.832031 C 149.996094 361.832031 114.226562 350.035156 84.078125 327.71875 C 69.574219 316.980469 56.859375 304.125 46.289062 289.507812 C 35.578125 274.707031 27.3125 258.433594 21.714844 241.132812 C 21.246094 239.679688 22.042969 238.117188 23.5 237.644531 C 24.953125 237.175781 26.515625 237.976562 26.988281 239.429688 C 49.601562 309.328125 114.113281 356.292969 187.523438 356.292969 C 202.535156 356.292969 217.433594 354.308594 231.800781 350.398438 C 233.277344 349.996094 234.796875 350.867188 235.195312 352.34375 C 235.601562 353.820312 234.730469 355.339844 233.253906 355.746094 C 218.414062 359.78125 203.027344 361.832031 187.523438 361.832031 " fill-opacity="1" fill-rule="nonzero"/><path fill="#f1ad53" d="M 358.929688 186.863281 C 357.425781 186.863281 356.191406 185.660156 356.160156 184.152344 C 354.3125 93.058594 278.664062 18.949219 187.523438 18.949219 C 132.789062 18.949219 81.214844 45.761719 49.558594 90.679688 C 48.675781 91.933594 46.949219 92.230469 45.699219 91.351562 C 44.449219 90.472656 44.148438 88.742188 45.03125 87.492188 C 60.8125 65.097656 81.910156 46.480469 106.046875 33.65625 C 130.984375 20.410156 159.15625 13.40625 187.523438 13.40625 C 233.359375 13.40625 276.667969 31.132812 309.46875 63.3125 C 342.222656 95.457031 360.773438 138.328125 361.699219 184.035156 C 361.730469 185.566406 360.515625 186.832031 358.988281 186.863281 C 358.964844 186.863281 358.945312 186.863281 358.929688 186.863281 " fill-opacity="1" fill-rule="nonzero"/><path fill="#f1ad53" d="M 142.71875 342.074219 C 142.460938 342.074219 142.195312 342.039062 141.933594 341.960938 C 109.335938 332.316406 79.988281 311.996094 59.296875 284.742188 C 37.910156 256.578125 26.605469 222.988281 26.605469 187.621094 C 26.605469 128.535156 58.976562 74.285156 111.089844 46.042969 C 112.433594 45.3125 114.117188 45.8125 114.847656 47.152344 C 115.574219 48.503906 115.074219 50.183594 113.730469 50.910156 C 63.40625 78.183594 32.144531 130.566406 32.144531 187.621094 C 32.144531 255.96875 77.941406 317.25 143.503906 336.652344 C 144.972656 337.082031 145.8125 338.625 145.375 340.089844 C 145.019531 341.296875 143.917969 342.074219 142.71875 342.074219 " fill-opacity="1" fill-rule="nonzero"/><path fill="#544f9f" d="M 187.523438 348.539062 C 186.941406 348.539062 186.363281 348.53125 185.785156 348.527344 C 184.253906 348.507812 183.027344 347.257812 183.042969 345.726562 C 183.058594 344.203125 184.296875 342.988281 185.8125 342.988281 C 185.824219 342.988281 185.832031 342.988281 185.84375 342.988281 C 186.402344 342.992188 186.960938 342.996094 187.523438 342.996094 C 273.199219 342.996094 342.898438 273.296875 342.898438 187.621094 C 342.898438 101.949219 273.199219 32.242188 187.523438 32.242188 C 186.253906 32.242188 184.96875 32.261719 183.707031 32.289062 C 182.171875 32.316406 180.90625 31.117188 180.871094 29.589844 C 180.832031 28.058594 182.042969 26.789062 183.570312 26.753906 C 184.878906 26.722656 186.210938 26.703125 187.523438 26.703125 C 276.253906 26.703125 348.441406 98.886719 348.441406 187.621094 C 348.441406 276.347656 276.253906 348.539062 187.523438 348.539062 " fill-opacity="1" fill-rule="nonzero"/><path fill="#f0401e" d="M 187.523438 335.238281 C 106.125 335.238281 39.902344 269.019531 39.902344 187.621094 C 39.902344 106.21875 106.125 40 187.523438 40 C 198.753906 40 209.957031 41.277344 220.816406 43.789062 C 222.304688 44.128906 223.234375 45.621094 222.886719 47.109375 C 222.546875 48.597656 221.054688 49.527344 219.566406 49.1875 C 209.117188 46.765625 198.335938 45.539062 187.523438 45.539062 C 109.179688 45.539062 45.441406 109.277344 45.441406 187.621094 C 45.441406 265.964844 109.179688 329.699219 187.523438 329.699219 C 202.453125 329.699219 217.171875 327.382812 231.261719 322.8125 C 232.714844 322.339844 234.28125 323.136719 234.753906 324.59375 C 235.222656 326.050781 234.425781 327.609375 232.96875 328.082031 C 218.332031 332.832031 203.039062 335.238281 187.523438 335.238281 " fill-opacity="1" fill-rule="nonzero"/><path fill="#544f9f" d="M 284.902344 297.53125 C 284.152344 297.53125 283.398438 297.226562 282.851562 296.625 C 281.824219 295.496094 281.90625 293.742188 283.039062 292.710938 C 312.628906 265.789062 329.601562 227.488281 329.601562 187.621094 C 329.601562 140.886719 306.523438 97.101562 267.871094 70.5 C 266.613281 69.632812 266.292969 67.90625 267.160156 66.648438 C 268.027344 65.386719 269.753906 65.070312 271.015625 65.9375 C 311.167969 93.574219 335.144531 139.0625 335.144531 187.621094 C 335.144531 208.746094 330.75 229.164062 322.09375 248.292969 C 313.726562 266.773438 301.839844 283.097656 286.765625 296.8125 C 286.234375 297.292969 285.570312 297.53125 284.902344 297.53125 " fill-opacity="1" fill-rule="nonzero"/><path fill="#f0401e" d="M 187.523438 321.941406 C 141.8125 321.941406 99.632812 298.949219 74.691406 260.4375 C 73.863281 259.152344 74.230469 257.441406 75.511719 256.609375 C 76.796875 255.777344 78.511719 256.140625 79.34375 257.425781 C 103.257812 294.355469 143.699219 316.402344 187.523438 316.402344 C 258.535156 316.402344 316.300781 258.632812 316.300781 187.621094 C 316.300781 181.96875 315.933594 176.28125 315.199219 170.714844 C 315 169.195312 316.066406 167.804688 317.582031 167.605469 C 319.097656 167.402344 320.492188 168.472656 320.691406 169.988281 C 321.457031 175.796875 321.84375 181.726562 321.84375 187.621094 C 321.84375 261.683594 261.585938 321.941406 187.523438 321.941406 " fill-opacity="1" fill-rule="nonzero"/><path fill="#f1ad53" d="M 56.113281 196.640625 C 54.644531 196.640625 53.417969 195.488281 53.351562 194 C 53.25 191.890625 53.199219 189.742188 53.199219 187.621094 C 53.199219 113.554688 113.457031 53.300781 187.523438 53.300781 C 240.753906 53.300781 289.039062 84.851562 310.535156 133.675781 C 311.148438 135.074219 310.515625 136.710938 309.117188 137.328125 C 307.714844 137.945312 306.078125 137.308594 305.464844 135.90625 C 284.855469 89.089844 238.558594 58.835938 187.523438 58.835938 C 116.511719 58.835938 58.738281 116.609375 58.738281 187.621094 C 58.738281 189.65625 58.789062 191.714844 58.882812 193.738281 C 58.957031 195.269531 57.773438 196.566406 56.246094 196.636719 C 56.203125 196.636719 56.160156 196.640625 56.113281 196.640625 " fill-opacity="1" fill-rule="nonzero"/><path fill="#5db3e7" d="M 187.523438 308.644531 C 120.789062 308.644531 66.496094 254.351562 66.496094 187.621094 C 66.496094 168.253906 70.953125 149.742188 79.746094 132.589844 C 80.445312 131.230469 82.113281 130.691406 83.472656 131.390625 C 84.835938 132.089844 85.375 133.757812 84.675781 135.121094 C 76.289062 151.480469 72.035156 169.144531 72.035156 187.621094 C 72.035156 251.296875 123.84375 303.101562 187.523438 303.101562 C 222.164062 303.101562 254.691406 287.695312 276.769531 260.832031 C 277.738281 259.648438 279.484375 259.480469 280.667969 260.449219 C 281.851562 261.421875 282.023438 263.167969 281.046875 264.351562 C 257.914062 292.503906 223.828125 308.644531 187.523438 308.644531 " fill-opacity="1" fill-rule="nonzero"/><path fill="#54afe6" d="M 300 226.933594 C 299.714844 226.933594 299.425781 226.890625 299.140625 226.796875 C 297.6875 226.324219 296.890625 224.757812 297.367188 223.304688 C 301.105469 211.816406 303.003906 199.808594 303.003906 187.621094 C 303.003906 123.941406 251.199219 72.136719 187.523438 72.136719 C 168.761719 72.136719 150.121094 76.757812 133.621094 85.503906 C 132.269531 86.21875 130.59375 85.703125 129.875 84.351562 C 129.160156 83.003906 129.671875 81.324219 131.023438 80.609375 C 148.324219 71.441406 167.859375 66.59375 187.523438 66.59375 C 254.253906 66.59375 308.546875 120.886719 308.546875 187.621094 C 308.546875 200.390625 306.558594 212.976562 302.632812 225.023438 C 302.253906 226.191406 301.167969 226.933594 300 226.933594 " fill-opacity="1" fill-rule="nonzero"/><path fill="#544f9f" d="M 187.523438 295.347656 C 179.148438 295.347656 170.804688 294.378906 162.71875 292.46875 C 161.230469 292.117188 160.308594 290.621094 160.664062 289.132812 C 161.011719 287.640625 162.507812 286.722656 163.996094 287.078125 C 171.660156 288.886719 179.578125 289.808594 187.523438 289.808594 C 243.867188 289.808594 289.710938 243.964844 289.710938 187.621094 C 289.710938 131.273438 243.867188 85.429688 187.523438 85.429688 C 131.175781 85.429688 85.335938 131.273438 85.335938 187.621094 C 85.335938 217.472656 98.386719 245.769531 121.148438 265.257812 C 122.3125 266.253906 122.449219 268 121.453125 269.164062 C 120.457031 270.328125 118.710938 270.460938 117.546875 269.46875 C 93.554688 248.921875 79.792969 219.09375 79.792969 187.621094 C 79.792969 128.21875 128.121094 79.890625 187.523438 79.890625 C 246.921875 79.890625 295.25 128.21875 295.25 187.621094 C 295.25 247.019531 246.921875 295.347656 187.523438 295.347656 " fill-opacity="1" fill-rule="nonzero"/><path fill="#f1ad53" d="M 187.523438 282.050781 C 168.378906 282.050781 149.933594 276.332031 134.175781 265.507812 C 118.792969 254.933594 106.96875 240.25 99.980469 223.03125 C 99.402344 221.613281 100.085938 219.996094 101.503906 219.417969 C 102.921875 218.84375 104.535156 219.527344 105.113281 220.945312 C 118.8125 254.699219 151.160156 276.511719 187.523438 276.511719 C 236.535156 276.511719 276.414062 236.632812 276.414062 187.621094 C 276.414062 154.101562 257.816406 123.753906 227.890625 108.433594 C 226.527344 107.738281 225.988281 106.070312 226.683594 104.703125 C 227.382812 103.34375 229.050781 102.804688 230.410156 103.503906 C 245.667969 111.3125 258.542969 123.132812 267.644531 137.6875 C 277.003906 152.65625 281.953125 169.921875 281.953125 187.621094 C 281.953125 239.6875 239.589844 282.050781 187.523438 282.050781 " fill-opacity="1" fill-rule="nonzero"/><path fill="#5db3e7" d="M 98.941406 166.796875 C 98.707031 166.796875 98.464844 166.765625 98.226562 166.703125 C 96.75 166.304688 95.871094 164.789062 96.261719 163.308594 C 101.378906 144.121094 112.769531 126.640625 128.335938 114.085938 C 144.363281 101.164062 163.683594 93.957031 184.214844 93.246094 C 185.746094 93.191406 187.027344 94.386719 187.078125 95.917969 C 187.132812 97.445312 185.9375 98.730469 184.40625 98.78125 C 145.65625 100.125 111.613281 127.246094 101.617188 164.734375 C 101.285156 165.976562 100.164062 166.796875 98.941406 166.796875 " fill-opacity="1" fill-rule="nonzero"/><path fill="#f14d27" d="M 187.523438 268.75 C 142.785156 268.75 106.390625 232.359375 106.390625 187.621094 C 106.390625 142.878906 142.785156 106.488281 187.523438 106.488281 C 232.261719 106.488281 268.652344 142.878906 268.652344 187.621094 C 268.652344 193.851562 267.945312 200.0625 266.546875 206.078125 C 266.199219 207.566406 264.710938 208.492188 263.21875 208.152344 C 261.730469 207.804688 260.804688 206.3125 261.148438 204.824219 C 262.457031 199.21875 263.117188 193.433594 263.117188 187.621094 C 263.117188 145.9375 229.207031 112.023438 187.523438 112.023438 C 145.839844 112.023438 111.929688 145.9375 111.929688 187.621094 C 111.929688 229.304688 145.839844 263.214844 187.523438 263.214844 C 201.292969 263.214844 214.769531 259.476562 226.496094 252.40625 C 227.804688 251.613281 229.511719 252.035156 230.300781 253.347656 C 231.09375 254.65625 230.671875 256.359375 229.355469 257.148438 C 216.769531 264.742188 202.300781 268.75 187.523438 268.75 " fill-opacity="1" fill-rule="nonzero"/></svg>